<svg width="73" height="73" viewBox="0 0 73 73" fill="none" xmlns="http://www.w3.org/2000/svg">
<path d="M63.1323 36.8853C63.5484 36.8853 63.8868 37.2227 63.8752 37.6386C63.7673 41.5059 62.8294 45.3079 61.1216 48.7859C59.303 52.4894 56.6598 55.727 53.395 58.2498C50.1302 60.7726 46.3307 62.5137 42.2881 63.3393C38.4919 64.1145 34.5762 64.0631 30.8067 63.192C30.4013 63.0983 30.1602 62.6857 30.2652 62.2831V62.2831C30.3701 61.8804 30.7814 61.6402 31.187 61.7333C34.7334 62.5466 38.416 62.592 41.9866 61.8629C45.8035 61.0834 49.3911 59.4395 52.4736 57.0574C55.5562 54.6754 58.0519 51.6186 59.769 48.1217C61.3753 44.8505 62.2602 41.2755 62.3677 37.6386C62.38 37.2227 62.7162 36.8853 63.1323 36.8853V36.8853Z" fill="#3C5A94" stroke="#3C5A94" stroke-width="0.3"/>
<path d="M24.2736 59.9031C24.0737 60.268 23.6152 60.4027 23.256 60.1926C19.9163 58.2397 17.0327 55.5902 14.8032 52.4212C12.4291 49.0467 10.86 45.173 10.2163 41.0976C9.57261 37.0221 9.87151 32.8533 11.09 28.9114C12.2343 25.2096 14.161 21.8003 16.7362 18.9132C17.0132 18.6026 17.4909 18.5894 17.7936 18.875V18.875C18.0963 19.1605 18.1093 19.6366 17.8328 19.9476C15.4153 22.6669 13.606 25.8747 12.5297 29.3564C11.3792 33.0784 11.097 37.0145 11.7047 40.8625C12.3125 44.7105 13.794 48.368 16.0356 51.5542C18.1326 54.5348 20.8425 57.0287 23.9804 58.8706C24.3392 59.0813 24.4736 59.5382 24.2736 59.9031V59.9031Z" fill="#3C5A94" stroke="#3C5A94" stroke-width="0.3"/>
<path d="M23.7558 14.1591C23.5476 13.7988 23.6705 13.3369 24.0365 13.1389C27.439 11.2978 31.2004 10.2079 35.0662 9.94682C39.1828 9.66878 43.3083 10.3379 47.126 11.9027C50.9437 13.4676 54.352 15.8866 57.0891 18.974C59.6595 21.8733 61.5738 25.2895 62.7052 28.9891C62.8269 29.3871 62.5903 29.8023 62.1891 29.9128V29.9128C61.7879 30.0233 61.3742 29.7874 61.2519 29.3896C60.182 25.9119 58.3792 22.7006 55.9616 19.9736C53.3772 17.0586 50.1591 14.7746 46.5545 13.297C42.9499 11.8195 39.0546 11.1877 35.1677 11.4503C31.5317 11.6959 27.9935 12.7179 24.7906 14.4442C24.4243 14.6416 23.964 14.5194 23.7558 14.1591V14.1591Z" fill="#3C5A94" stroke="#3C5A94" stroke-width="0.3"/>
<path d="M56.7432 28.166L56.7432 28.166L61.3267 29.878L63.0381 25.2943L63.0382 25.2943C63.0676 25.2154 63.1124 25.143 63.1698 25.0814C63.2272 25.0197 63.2962 24.97 63.3729 24.935C63.4495 24.9001 63.5323 24.8806 63.6165 24.8776C63.7007 24.8746 63.7847 24.8882 63.8636 24.9177C63.9425 24.9472 64.0149 24.9919 64.0765 25.0494C64.1381 25.1068 64.1878 25.1758 64.2228 25.2525C64.2578 25.3291 64.2773 25.4119 64.2803 25.4961C64.2833 25.5803 64.2696 25.6642 64.2401 25.7432L62.3041 30.9274L56.7432 28.166ZM56.7432 28.166C56.5838 28.1064 56.4073 28.1127 56.2525 28.1833C56.0977 28.2539 55.9773 28.3831 55.9177 28.5425C55.8582 28.7019 55.8644 28.8784 55.9351 29.0332C56.0057 29.188 56.1349 29.3084 56.2943 29.368L61.4785 31.304L56.7432 28.166Z" fill="#3C5A94" stroke="#3C5A94" stroke-width="0.5"/>
<path d="M32.8157 66.7268L32.8157 66.7268L30.3619 62.4938L34.5952 60.0405L34.5953 60.0405C34.6681 59.9983 34.732 59.9421 34.7832 59.8752C34.8343 59.8082 34.8718 59.7319 34.8935 59.6505C34.9152 59.5691 34.9206 59.4842 34.9095 59.4007C34.8983 59.3172 34.8708 59.2367 34.8286 59.1638C34.7864 59.0909 34.7302 59.027 34.6632 58.9759C34.5963 58.9247 34.52 58.8872 34.4386 58.8655C34.3571 58.8438 34.2723 58.8384 34.1887 58.8496C34.1052 58.8607 34.0247 58.8882 33.9519 58.9304L29.164 61.7054L32.8157 66.7268ZM32.8157 66.7268C32.901 66.874 32.9244 67.0491 32.8806 67.2135C32.8369 67.3779 32.7296 67.5182 32.5824 67.6036C32.4352 67.6889 32.2601 67.7122 32.0957 67.6685C31.9312 67.6247 31.7909 67.5174 31.7056 67.3702L28.9306 62.5824L32.8157 66.7268Z" fill="#3C5A94" stroke="#3C5A94" stroke-width="0.5"/>
<path d="M12.8901 18.9786L12.8901 18.9786L17.7517 18.4269L18.3027 23.2886L18.3027 23.2886C18.3122 23.3724 18.3381 23.4534 18.3789 23.5271C18.4197 23.6008 18.4747 23.6657 18.5406 23.7182C18.6065 23.7707 18.6821 23.8097 18.763 23.8329C18.844 23.8562 18.9288 23.8633 19.0125 23.8538C19.0962 23.8443 19.1772 23.8184 19.2509 23.7776C19.3246 23.7368 19.3896 23.6819 19.4421 23.616C19.4945 23.5501 19.5335 23.4745 19.5568 23.3935C19.58 23.3125 19.5871 23.2278 19.5776 23.1441L18.954 17.6454L12.8901 18.9786ZM12.8901 18.9786C12.721 18.9978 12.5512 18.949 12.4181 18.843C12.285 18.737 12.1995 18.5825 12.1803 18.4135C12.1611 18.2444 12.2099 18.0746 12.3159 17.9415C12.4219 17.8084 12.5764 17.7229 12.7455 17.7037L18.2441 17.0801L12.8901 18.9786Z" fill="#3C5A94" stroke="#3C5A94" stroke-width="0.5"/>
</svg>